<?xml version="1.0" encoding="UTF-8" standalone="no"?>
<!-- Created with Inkscape (http://www.inkscape.org/) -->

<svg
   width="3.6600001in"
   height="2.1600001in"
   viewBox="0 0 92.964004 54.864004"
   version="1.1"
   id="svg5"
   inkscape:version="1.1.2 (0a00cf5339, 2022-02-04)"
   sodipodi:docname="card-back.svg"
   inkscape:export-filename="/home/short/work/art/profile/card-back.png"
   inkscape:export-xdpi="192"
   inkscape:export-ydpi="192"
   xmlns:inkscape="http://www.inkscape.org/namespaces/inkscape"
   xmlns:sodipodi="http://sodipodi.sourceforge.net/DTD/sodipodi-0.dtd"
   xmlns="http://www.w3.org/2000/svg"
   xmlns:svg="http://www.w3.org/2000/svg">
  <sodipodi:namedview
     id="namedview7"
     pagecolor="#505050"
     bordercolor="#eeeeee"
     borderopacity="1"
     inkscape:pageshadow="0"
     inkscape:pageopacity="0"
     inkscape:pagecheckerboard="0"
     inkscape:document-units="mm"
     showgrid="false"
     units="in"
     width="3.66in"
     showguides="true"
     inkscape:guide-bbox="true"
     inkscape:zoom="2.4302469"
     inkscape:cx="171.17602"
     inkscape:cy="100.19558"
     inkscape:window-width="2560"
     inkscape:window-height="1377"
     inkscape:window-x="30"
     inkscape:window-y="26"
     inkscape:window-maximized="0"
     inkscape:current-layer="layer1" />
  <defs
     id="defs2" />
  <g
     inkscape:label="Layer 1"
     inkscape:groupmode="layer"
     id="layer1">
    <rect
       style="fill:#eceff4;stroke-width:0.529167;stroke-linejoin:round;paint-order:markers fill stroke"
       id="rect846"
       width="92.963997"
       height="54.863998"
       x="0"
       y="-1.3877788e-17" />
    <path
       style="fill:none;stroke:#3b4252;stroke-width:0.428624;stroke-linecap:round;stroke-linejoin:round;stroke-miterlimit:4;stroke-dasharray:none;stroke-opacity:1"
       d="M 9.3087168,6.829079 C 9.8095078,8.307504 9.8095078,8.307504 11.261874,8.782236 9.8095078,9.278543 9.8095078,9.278543 9.3087168,10.735394 8.838247,9.278543 8.838247,9.278543 7.3555594,8.782236 8.838247,8.307504 8.838247,8.307504 9.3087168,6.829079 Z"
       id="path188342-7"
       sodipodi:nodetypes="ccccc" />
    <path
       style="fill:none;stroke:#3b4252;stroke-width:0.428624;stroke-linecap:round;stroke-linejoin:round;stroke-miterlimit:4;stroke-dasharray:none;stroke-opacity:1"
       d="m 12.775306,11.482058 c 0.500791,1.478424 0.500791,1.478424 1.953158,1.953157 -1.452367,0.496307 -1.452367,0.496307 -1.953157,1.953157 -0.47047,-1.45685 -0.47047,-1.45685 -1.953158,-1.953157 1.482688,-0.474733 1.482688,-0.474733 1.953157,-1.953157 z"
       id="path188342-7-0"
       sodipodi:nodetypes="ccccc" />
    <path
       style="fill:none;stroke:#3b4252;stroke-width:0.428624;stroke-linecap:round;stroke-linejoin:round;stroke-miterlimit:4;stroke-dasharray:none;stroke-opacity:1"
       d="m 8.3283216,16.518402 c 0.500791,1.478424 0.500791,1.478424 1.9531564,1.953157 -1.4523654,0.496307 -1.4523654,0.496307 -1.953156,1.953157 -0.4704699,-1.45685 -0.4704699,-1.45685 -1.9531575,-1.953157 1.4826876,-0.474733 1.4826876,-0.474733 1.9531571,-1.953157 z"
       id="path188342-7-9"
       sodipodi:nodetypes="ccccc" />
    <circle
       style="fill:none;fill-opacity:1;stroke:#3b4252;stroke-width:0.428624;stroke-linecap:round;stroke-linejoin:round;stroke-miterlimit:4;stroke-dasharray:none;stroke-opacity:1;paint-order:markers fill stroke"
       id="path189787-2"
       cx="8.0875359"
       cy="13.382579"
       r="0.68098313" />
    <circle
       style="fill:none;fill-opacity:1;stroke:#3b4252;stroke-width:0.428624;stroke-linecap:round;stroke-linejoin:round;stroke-miterlimit:4;stroke-dasharray:none;stroke-opacity:1;paint-order:markers fill stroke"
       id="path189787-2-6"
       cx="14.16834"
       cy="9.57759"
       r="0.68098313" />
    <path
       style="fill:none;stroke:#3b4252;stroke-width:0.428624;stroke-linecap:round;stroke-linejoin:round;stroke-miterlimit:4;stroke-dasharray:none;stroke-opacity:1"
       d="m 79.777873,39.781328 c 0.50079,1.478423 0.50079,1.478423 1.953157,1.953156 -1.452367,0.496308 -1.452367,0.496308 -1.953157,1.953157 -0.470468,-1.45685 -0.470468,-1.45685 -1.953157,-1.953157 1.482689,-0.474733 1.482689,-0.474733 1.953157,-1.953156 z"
       id="path188342-7-3"
       sodipodi:nodetypes="ccccc" />
    <path
       style="fill:none;stroke:#3b4252;stroke-width:0.428624;stroke-linecap:round;stroke-linejoin:round;stroke-miterlimit:4;stroke-dasharray:none;stroke-opacity:1"
       d="m 84.546327,35.12003 c 0.50079,1.478424 0.50079,1.478424 1.953157,1.953157 -1.452367,0.496307 -1.452367,0.496307 -1.953157,1.953157 -0.470468,-1.45685 -0.470468,-1.45685 -1.953157,-1.953157 1.482689,-0.474733 1.482689,-0.474733 1.953157,-1.953157 z"
       id="path188342-7-6"
       sodipodi:nodetypes="ccccc" />
    <path
       style="fill:none;stroke:#3b4252;stroke-width:0.428624;stroke-linecap:round;stroke-linejoin:round;stroke-miterlimit:4;stroke-dasharray:none;stroke-opacity:1"
       d="m 83.697447,44.952453 c 0.50079,1.478424 0.50079,1.478424 1.953157,1.953157 -1.452367,0.496308 -1.452367,0.496308 -1.953157,1.953158 -0.470469,-1.45685 -0.470469,-1.45685 -1.953157,-1.953158 1.482688,-0.474733 1.482688,-0.474733 1.953157,-1.953157 z"
       id="path188342-7-06"
       sodipodi:nodetypes="ccccc" />
    <circle
       style="fill:none;fill-opacity:1;stroke:#3b4252;stroke-width:0.428624;stroke-linecap:round;stroke-linejoin:round;stroke-miterlimit:4;stroke-dasharray:none;stroke-opacity:1;paint-order:markers fill stroke"
       id="path189787-2-1"
       cx="84.613091"
       cy="42.064323"
       r="0.68098313" />
    <circle
       style="fill:none;fill-opacity:1;stroke:#3b4252;stroke-width:0.428624;stroke-linecap:round;stroke-linejoin:round;stroke-miterlimit:4;stroke-dasharray:none;stroke-opacity:1;paint-order:markers fill stroke"
       id="path189787-2-8"
       cx="80.572128"
       cy="36.321213"
       r="0.68098313" />
    <circle
       style="fill:none;fill-opacity:1;stroke:#3b4252;stroke-width:0.428624;stroke-linecap:round;stroke-linejoin:round;stroke-miterlimit:4;stroke-dasharray:none;stroke-opacity:1;paint-order:markers fill stroke"
       id="path189787-2-9"
       cx="79.673225"
       cy="46.270626"
       r="0.68098313" />
    <g
       fill="#3b4252"
       id="g176024"
       transform="matrix(0.03370458,0,0,0.03370458,34.752807,15.702807)">
<g
   transform="matrix(4.12,0,0,4.12,264,48)"
   id="g175058">
  <circle
     cx="3"
     cy="3"
     r="2.5"
     id="circle175056" />
</g>

<g
   transform="matrix(4.12,0,0,4.12,336,48)"
   id="g175062">
  <circle
     cx="3"
     cy="3"
     r="2.5"
     id="circle175060" />
</g>

<g
   transform="matrix(4.12,0,0,4.12,384,48)"
   id="g175066">
  <circle
     cx="3"
     cy="3"
     r="2.5"
     id="circle175064" />
</g>

<g
   transform="matrix(4.12,0,0,4.12,432,48)"
   id="g175070">
  <circle
     cx="3"
     cy="3"
     r="2.5"
     id="circle175068" />
</g>

<g
   transform="matrix(4.12,0,0,4.12,264,72)"
   id="g175074">
  <circle
     cx="3"
     cy="3"
     r="2.5"
     id="circle175072" />
</g>

<g
   transform="matrix(4.12,0,0,4.12,384,72)"
   id="g175078">
  <path
     d="M 6,5.5 H 3 C 1.6,5.5 0.5,4.4 0.5,3 V 3 C 0.5,1.6 1.6,0.5 3,0.5 h 3 z"
     id="path175076" />
</g>

<g
   transform="matrix(4.12,0,0,4.12,408,72)"
   id="g175082">
  <path
     d="M 3,5.5 H 0 v -5 H 3 C 4.4,0.5 5.5,1.6 5.5,3 V 3 C 5.5,4.4 4.4,5.5 3,5.5 Z"
     id="path175080" />
</g>

<g
   transform="matrix(4.12,0,0,4.12,240,96)"
   id="g175086">
  <path
     d="M 6,5.5 H 3 C 1.6,5.5 0.5,4.4 0.5,3 V 3 C 0.5,1.6 1.6,0.5 3,0.5 h 3 z"
     id="path175084" />
</g>

<g
   transform="matrix(4.12,0,0,4.12,264,96)"
   id="g175090">
  <path
     d="M 3,5.5 H 0 v -5 H 3 C 4.4,0.5 5.5,1.6 5.5,3 V 3 C 5.5,4.4 4.4,5.5 3,5.5 Z"
     id="path175088" />
</g>

<g
   transform="matrix(4.12,0,0,4.12,312,96)"
   id="g175094">
  <path
     d="M 6,5.5 H 3 C 1.6,5.5 0.5,4.4 0.5,3 V 3 C 0.5,1.6 1.6,0.5 3,0.5 h 3 z"
     id="path175092" />
</g>

<g
   transform="matrix(4.12,0,0,4.12,336,96)"
   id="g175098">
  <path
     d="M 3,5.5 H 0 v -5 H 3 C 4.4,0.5 5.5,1.6 5.5,3 V 3 C 5.5,4.4 4.4,5.5 3,5.5 Z"
     id="path175096" />
</g>

<g
   transform="matrix(4.12,0,0,4.12,408,96)"
   id="g175102">
  <path
     d="M 6,5.5 H 3 C 1.6,5.5 0.5,4.4 0.5,3 V 3 C 0.5,1.6 1.6,0.5 3,0.5 h 3 z"
     id="path175100" />
</g>

<g
   transform="matrix(4.12,0,0,4.12,432,96)"
   id="g175106">
  <path
     d="M 3,5.5 H 0 v -5 H 3 C 4.4,0.5 5.5,1.6 5.5,3 V 3 C 5.5,4.4 4.4,5.5 3,5.5 Z"
     id="path175104" />
</g>

<g
   transform="matrix(4.12,0,0,4.12,240,120)"
   id="g175110">
  <path
     d="M 6,5.5 H 3 C 1.6,5.5 0.5,4.4 0.5,3 V 3 C 0.5,1.6 1.6,0.5 3,0.5 h 3 z"
     id="path175108" />
</g>

<g
   transform="matrix(4.12,0,0,4.12,264,120)"
   id="g175114">
  <path
     d="M 3,5.5 H 0 v -5 H 3 C 4.4,0.5 5.5,1.6 5.5,3 V 3 C 5.5,4.4 4.4,5.5 3,5.5 Z"
     id="path175112" />
</g>

<g
   transform="matrix(4.12,0,0,4.12,312,120)"
   id="g175118">
  <path
     d="M 6,5.5 H 3 C 1.6,5.5 0.5,4.4 0.5,3 V 3 C 0.5,1.6 1.6,0.5 3,0.5 h 3 z"
     id="path175116" />
</g>

<g
   transform="matrix(4.12,0,0,4.12,336,120)"
   id="g175122">
  <rect
     y="0.5"
     width="6"
     height="5"
     id="rect175120"
     x="0" />
</g>

<g
   transform="matrix(4.12,0,0,4.12,360,120)"
   id="g175126">
  <rect
     y="0.5"
     width="6"
     height="5"
     id="rect175124"
     x="0" />
</g>

<g
   transform="matrix(4.12,0,0,4.12,384,120)"
   id="g175130">
  <path
     d="M 3,5.5 H 0 v -5 H 3 C 4.4,0.5 5.5,1.6 5.5,3 V 3 C 5.5,4.4 4.4,5.5 3,5.5 Z"
     id="path175128" />
</g>

<g
   transform="matrix(4.12,0,0,4.12,240,144)"
   id="g175134">
  <path
     d="M 6,5.5 H 3 C 1.6,5.5 0.5,4.4 0.5,3 V 3 C 0.5,1.6 1.6,0.5 3,0.5 h 3 z"
     id="path175132" />
</g>

<g
   transform="matrix(4.12,0,0,4.12,264,144)"
   id="g175138">
  <rect
     y="0.5"
     width="6"
     height="5"
     id="rect175136"
     x="0" />
</g>

<g
   transform="matrix(4.12,0,0,4.12,288,144)"
   id="g175142">
  <rect
     y="0.5"
     width="6"
     height="5"
     id="rect175140"
     x="0" />
</g>

<g
   transform="matrix(4.12,0,0,4.12,312,144)"
   id="g175146">
  <rect
     y="0.5"
     width="6"
     height="5"
     id="rect175144"
     x="0" />
</g>

<g
   transform="matrix(4.12,0,0,4.12,336,144)"
   id="g175150">
  <rect
     y="0.5"
     width="6"
     height="5"
     id="rect175148"
     x="0" />
</g>

<g
   transform="matrix(4.12,0,0,4.12,360,144)"
   id="g175154">
  <path
     d="M 3,5.5 H 0 v -5 H 3 C 4.4,0.5 5.5,1.6 5.5,3 V 3 C 5.5,4.4 4.4,5.5 3,5.5 Z"
     id="path175152" />
</g>

<g
   transform="matrix(4.12,0,0,4.12,432,144)"
   id="g175158">
  <circle
     cx="3"
     cy="3"
     r="2.5"
     id="circle175156" />
</g>

<g
   transform="matrix(4.12,0,0,4.12,240,168)"
   id="g175162">
  <path
     d="M 6,5.5 H 3 C 1.6,5.5 0.5,4.4 0.5,3 V 3 C 0.5,1.6 1.6,0.5 3,0.5 h 3 z"
     id="path175160" />
</g>

<g
   transform="matrix(4.12,0,0,4.12,264,168)"
   id="g175166">
  <rect
     y="0.5"
     width="6"
     height="5"
     id="rect175164"
     x="0" />
</g>

<g
   transform="matrix(4.12,0,0,4.12,288,168)"
   id="g175170">
  <path
     d="M 3,5.5 H 0 v -5 H 3 C 4.4,0.5 5.5,1.6 5.5,3 V 3 C 5.5,4.4 4.4,5.5 3,5.5 Z"
     id="path175168" />
</g>

<g
   transform="matrix(4.12,0,0,4.12,360,168)"
   id="g175174">
  <path
     d="M 6,5.5 H 3 C 1.6,5.5 0.5,4.4 0.5,3 V 3 C 0.5,1.6 1.6,0.5 3,0.5 h 3 z"
     id="path175172" />
</g>

<g
   transform="matrix(4.12,0,0,4.12,384,168)"
   id="g175178">
  <rect
     y="0.5"
     width="6"
     height="5"
     id="rect175176"
     x="0" />
</g>

<g
   transform="matrix(4.12,0,0,4.12,408,168)"
   id="g175182">
  <rect
     y="0.5"
     width="6"
     height="5"
     id="rect175180"
     x="0" />
</g>

<g
   transform="matrix(4.12,0,0,4.12,432,168)"
   id="g175186">
  <path
     d="M 3,5.5 H 0 v -5 H 3 C 4.4,0.5 5.5,1.6 5.5,3 V 3 C 5.5,4.4 4.4,5.5 3,5.5 Z"
     id="path175184" />
</g>

<g
   transform="matrix(4.12,0,0,4.12,240,192)"
   id="g175190">
  <circle
     cx="3"
     cy="3"
     r="2.5"
     id="circle175188" />
</g>

<g
   transform="matrix(4.12,0,0,4.12,288,192)"
   id="g175194">
  <circle
     cx="3"
     cy="3"
     r="2.5"
     id="circle175192" />
</g>

<g
   transform="matrix(4.12,0,0,4.12,336,192)"
   id="g175198">
  <circle
     cx="3"
     cy="3"
     r="2.5"
     id="circle175196" />
</g>

<g
   transform="matrix(4.12,0,0,4.12,384,192)"
   id="g175202">
  <circle
     cx="3"
     cy="3"
     r="2.5"
     id="circle175200" />
</g>

<g
   transform="matrix(4.12,0,0,4.12,432,192)"
   id="g175206">
  <circle
     cx="3"
     cy="3"
     r="2.5"
     id="circle175204" />
</g>

<g
   transform="matrix(4.12,0,0,4.12,240,216)"
   id="g175210">
  <path
     d="M 6,5.5 H 3 C 1.6,5.5 0.5,4.4 0.5,3 V 3 C 0.5,1.6 1.6,0.5 3,0.5 h 3 z"
     id="path175208" />
</g>

<g
   transform="matrix(4.12,0,0,4.12,264,216)"
   id="g175214">
  <path
     d="M 3,5.5 H 0 v -5 H 3 C 4.4,0.5 5.5,1.6 5.5,3 V 3 C 5.5,4.4 4.4,5.5 3,5.5 Z"
     id="path175212" />
</g>

<g
   transform="matrix(4.12,0,0,4.12,312,216)"
   id="g175218">
  <circle
     cx="3"
     cy="3"
     r="2.5"
     id="circle175216" />
</g>

<g
   transform="matrix(4.12,0,0,4.12,384,216)"
   id="g175222">
  <path
     d="M 6,5.5 H 3 C 1.6,5.5 0.5,4.4 0.5,3 V 3 C 0.5,1.6 1.6,0.5 3,0.5 h 3 z"
     id="path175220" />
</g>

<g
   transform="matrix(4.12,0,0,4.12,408,216)"
   id="g175226">
  <path
     d="M 3,5.5 H 0 v -5 H 3 C 4.4,0.5 5.5,1.6 5.5,3 V 3 C 5.5,4.4 4.4,5.5 3,5.5 Z"
     id="path175224" />
</g>

<g
   transform="matrix(4.12,0,0,4.12,48,240)"
   id="g175230">
  <circle
     cx="3"
     cy="3"
     r="2.5"
     id="circle175228" />
</g>

<g
   transform="matrix(4.12,0,0,4.12,96,240)"
   id="g175234">
  <path
     d="M 6,5.5 H 3 C 1.6,5.5 0.5,4.4 0.5,3 V 3 C 0.5,1.6 1.6,0.5 3,0.5 h 3 z"
     id="path175232" />
</g>

<g
   transform="matrix(4.12,0,0,4.12,120,240)"
   id="g175238">
  <rect
     y="0.5"
     width="6"
     height="5"
     id="rect175236"
     x="0" />
</g>

<g
   transform="matrix(4.12,0,0,4.12,144,240)"
   id="g175242">
  <rect
     y="0.5"
     width="6"
     height="5"
     id="rect175240"
     x="0" />
</g>

<g
   transform="matrix(4.12,0,0,4.12,168,240)"
   id="g175246">
  <rect
     y="0.5"
     width="6"
     height="5"
     id="rect175244"
     x="0" />
</g>

<g
   transform="matrix(4.12,0,0,4.12,192,240)"
   id="g175250">
  <path
     d="M 3,5.5 H 0 v -5 H 3 C 4.4,0.5 5.5,1.6 5.5,3 V 3 C 5.5,4.4 4.4,5.5 3,5.5 Z"
     id="path175248" />
</g>

<g
   transform="matrix(4.12,0,0,4.12,264,240)"
   id="g175254">
  <path
     d="M 6,5.5 H 3 C 1.6,5.5 0.5,4.4 0.5,3 V 3 C 0.5,1.6 1.6,0.5 3,0.5 h 3 z"
     id="path175252" />
</g>

<g
   transform="matrix(4.12,0,0,4.12,288,240)"
   id="g175258">
  <rect
     y="0.5"
     width="6"
     height="5"
     id="rect175256"
     x="0" />
</g>

<g
   transform="matrix(4.12,0,0,4.12,312,240)"
   id="g175262">
  <rect
     y="0.5"
     width="6"
     height="5"
     id="rect175260"
     x="0" />
</g>

<g
   transform="matrix(4.12,0,0,4.12,336,240)"
   id="g175266">
  <rect
     y="0.5"
     width="6"
     height="5"
     id="rect175264"
     x="0" />
</g>

<g
   transform="matrix(4.12,0,0,4.12,360,240)"
   id="g175270">
  <rect
     y="0.5"
     width="6"
     height="5"
     id="rect175268"
     x="0" />
</g>

<g
   transform="matrix(4.12,0,0,4.12,384,240)"
   id="g175274">
  <path
     d="M 3,5.5 H 0 v -5 H 3 C 4.4,0.5 5.5,1.6 5.5,3 V 3 C 5.5,4.4 4.4,5.5 3,5.5 Z"
     id="path175272" />
</g>

<g
   transform="matrix(4.12,0,0,4.12,480,240)"
   id="g175278">
  <path
     d="M 6,5.5 H 3 C 1.6,5.5 0.5,4.4 0.5,3 V 3 C 0.5,1.6 1.6,0.5 3,0.5 h 3 z"
     id="path175276" />
</g>

<g
   transform="matrix(4.12,0,0,4.12,504,240)"
   id="g175282">
  <rect
     y="0.5"
     width="6"
     height="5"
     id="rect175280"
     x="0" />
</g>

<g
   transform="matrix(4.12,0,0,4.12,528,240)"
   id="g175286">
  <rect
     y="0.5"
     width="6"
     height="5"
     id="rect175284"
     x="0" />
</g>

<g
   transform="matrix(4.12,0,0,4.12,552,240)"
   id="g175290">
  <rect
     y="0.5"
     width="6"
     height="5"
     id="rect175288"
     x="0" />
</g>

<g
   transform="matrix(4.12,0,0,4.12,576,240)"
   id="g175294">
  <path
     d="M 3,5.5 H 0 v -5 H 3 C 4.4,0.5 5.5,1.6 5.5,3 V 3 C 5.5,4.4 4.4,5.5 3,5.5 Z"
     id="path175292" />
</g>

<g
   transform="matrix(4.12,0,0,4.12,312,264)"
   id="g175298">
  <circle
     cx="3"
     cy="3"
     r="2.5"
     id="circle175296" />
</g>

<g
   transform="matrix(4.12,0,0,4.12,360,264)"
   id="g175302">
  <circle
     cx="3"
     cy="3"
     r="2.5"
     id="circle175300" />
</g>

<g
   transform="matrix(4.12,0,0,4.12,432,264)"
   id="g175306">
  <circle
     cx="3"
     cy="3"
     r="2.5"
     id="circle175304" />
</g>

<g
   transform="matrix(4.12,0,0,4.12,504,264)"
   id="g175310">
  <circle
     cx="3"
     cy="3"
     r="2.5"
     id="circle175308" />
</g>

<g
   transform="matrix(4.12,0,0,4.12,600,264)"
   id="g175314">
  <circle
     cx="3"
     cy="3"
     r="2.5"
     id="circle175312" />
</g>

<g
   transform="matrix(4.12,0,0,4.12,48,288)"
   id="g175318">
  <circle
     cx="3"
     cy="3"
     r="2.5"
     id="circle175316" />
</g>

<g
   transform="matrix(4.12,0,0,4.12,192,288)"
   id="g175322">
  <path
     d="M 6,5.5 H 3 C 1.6,5.5 0.5,4.4 0.5,3 V 3 C 0.5,1.6 1.6,0.5 3,0.5 h 3 z"
     id="path175320" />
</g>

<g
   transform="matrix(4.12,0,0,4.12,216,288)"
   id="g175326">
  <path
     d="M 3,5.5 H 0 v -5 H 3 C 4.4,0.5 5.5,1.6 5.5,3 V 3 C 5.5,4.4 4.4,5.5 3,5.5 Z"
     id="path175324" />
</g>

<g
   transform="matrix(4.12,0,0,4.12,264,288)"
   id="g175330">
  <circle
     cx="3"
     cy="3"
     r="2.5"
     id="circle175328" />
</g>

<g
   transform="matrix(4.12,0,0,4.12,312,288)"
   id="g175334">
  <path
     d="M 6,5.5 H 3 C 1.6,5.5 0.5,4.4 0.5,3 V 3 C 0.5,1.6 1.6,0.5 3,0.5 h 3 z"
     id="path175332" />
</g>

<g
   transform="matrix(4.12,0,0,4.12,336,288)"
   id="g175338">
  <rect
     y="0.5"
     width="6"
     height="5"
     id="rect175336"
     x="0" />
</g>

<g
   transform="matrix(4.12,0,0,4.12,360,288)"
   id="g175342">
  <rect
     y="0.5"
     width="6"
     height="5"
     id="rect175340"
     x="0" />
</g>

<g
   transform="matrix(4.12,0,0,4.12,384,288)"
   id="g175346">
  <rect
     y="0.5"
     width="6"
     height="5"
     id="rect175344"
     x="0" />
</g>

<g
   transform="matrix(4.12,0,0,4.12,408,288)"
   id="g175350">
  <rect
     y="0.5"
     width="6"
     height="5"
     id="rect175348"
     x="0" />
</g>

<g
   transform="matrix(4.12,0,0,4.12,432,288)"
   id="g175354">
  <path
     d="M 3,5.5 H 0 v -5 H 3 C 4.4,0.5 5.5,1.6 5.5,3 V 3 C 5.5,4.4 4.4,5.5 3,5.5 Z"
     id="path175352" />
</g>

<g
   transform="matrix(4.12,0,0,4.12,480,288)"
   id="g175358">
  <circle
     cx="3"
     cy="3"
     r="2.5"
     id="circle175356" />
</g>

<g
   transform="matrix(4.12,0,0,4.12,528,288)"
   id="g175362">
  <path
     d="M 6,5.5 H 3 C 1.6,5.5 0.5,4.4 0.5,3 V 3 C 0.5,1.6 1.6,0.5 3,0.5 h 3 z"
     id="path175360" />
</g>

<g
   transform="matrix(4.12,0,0,4.12,552,288)"
   id="g175366">
  <path
     d="M 3,5.5 H 0 v -5 H 3 C 4.4,0.5 5.5,1.6 5.5,3 V 3 C 5.5,4.4 4.4,5.5 3,5.5 Z"
     id="path175364" />
</g>

<g
   transform="matrix(4.12,0,0,4.12,600,288)"
   id="g175370">
  <path
     d="M 6,5.5 H 3 C 1.6,5.5 0.5,4.4 0.5,3 V 3 C 0.5,1.6 1.6,0.5 3,0.5 h 3 z"
     id="path175368" />
</g>

<g
   transform="matrix(4.12,0,0,4.12,624,288)"
   id="g175374">
  <path
     d="M 3,5.5 H 0 v -5 H 3 C 4.4,0.5 5.5,1.6 5.5,3 V 3 C 5.5,4.4 4.4,5.5 3,5.5 Z"
     id="path175372" />
</g>

<g
   transform="matrix(4.12,0,0,4.12,48,312)"
   id="g175378">
  <path
     d="M 6,5.5 H 3 C 1.6,5.5 0.5,4.4 0.5,3 V 3 C 0.5,1.6 1.6,0.5 3,0.5 h 3 z"
     id="path175376" />
</g>

<g
   transform="matrix(4.12,0,0,4.12,72,312)"
   id="g175382">
  <rect
     y="0.5"
     width="6"
     height="5"
     id="rect175380"
     x="0" />
</g>

<g
   transform="matrix(4.12,0,0,4.12,96,312)"
   id="g175386">
  <rect
     y="0.5"
     width="6"
     height="5"
     id="rect175384"
     x="0" />
</g>

<g
   transform="matrix(4.12,0,0,4.12,120,312)"
   id="g175390">
  <rect
     y="0.5"
     width="6"
     height="5"
     id="rect175388"
     x="0" />
</g>

<g
   transform="matrix(4.12,0,0,4.12,144,312)"
   id="g175394">
  <rect
     y="0.5"
     width="6"
     height="5"
     id="rect175392"
     x="0" />
</g>

<g
   transform="matrix(4.12,0,0,4.12,168,312)"
   id="g175398">
  <path
     d="M 3,5.5 H 0 v -5 H 3 C 4.4,0.5 5.5,1.6 5.5,3 V 3 C 5.5,4.4 4.4,5.5 3,5.5 Z"
     id="path175396" />
</g>

<g
   transform="matrix(4.12,0,0,4.12,216,312)"
   id="g175402">
  <circle
     cx="3"
     cy="3"
     r="2.5"
     id="circle175400" />
</g>

<g
   transform="matrix(4.12,0,0,4.12,312,312)"
   id="g175406">
  <circle
     cx="3"
     cy="3"
     r="2.5"
     id="circle175404" />
</g>

<g
   transform="matrix(4.12,0,0,4.12,408,312)"
   id="g175410">
  <path
     d="M 6,5.5 H 3 C 1.6,5.5 0.5,4.4 0.5,3 V 3 C 0.5,1.6 1.6,0.5 3,0.5 h 3 z"
     id="path175408" />
</g>

<g
   transform="matrix(4.12,0,0,4.12,432,312)"
   id="g175414">
  <rect
     y="0.5"
     width="6"
     height="5"
     id="rect175412"
     x="0" />
</g>

<g
   transform="matrix(4.12,0,0,4.12,456,312)"
   id="g175418">
  <rect
     y="0.5"
     width="6"
     height="5"
     id="rect175416"
     x="0" />
</g>

<g
   transform="matrix(4.12,0,0,4.12,480,312)"
   id="g175422">
  <path
     d="M 3,5.5 H 0 v -5 H 3 C 4.4,0.5 5.5,1.6 5.5,3 V 3 C 5.5,4.4 4.4,5.5 3,5.5 Z"
     id="path175420" />
</g>

<g
   transform="matrix(4.12,0,0,4.12,528,312)"
   id="g175426">
  <circle
     cx="3"
     cy="3"
     r="2.5"
     id="circle175424" />
</g>

<g
   transform="matrix(4.12,0,0,4.12,624,312)"
   id="g175430">
  <circle
     cx="3"
     cy="3"
     r="2.5"
     id="circle175428" />
</g>

<g
   transform="matrix(4.12,0,0,4.12,96,336)"
   id="g175434">
  <path
     d="M 6,5.5 H 3 C 1.6,5.5 0.5,4.4 0.5,3 V 3 C 0.5,1.6 1.6,0.5 3,0.5 h 3 z"
     id="path175432" />
</g>

<g
   transform="matrix(4.12,0,0,4.12,120,336)"
   id="g175438">
  <path
     d="M 3,5.5 H 0 v -5 H 3 C 4.4,0.5 5.5,1.6 5.5,3 V 3 C 5.5,4.4 4.4,5.5 3,5.5 Z"
     id="path175436" />
</g>

<g
   transform="matrix(4.12,0,0,4.12,192,336)"
   id="g175442">
  <path
     d="M 6,5.5 H 3 C 1.6,5.5 0.5,4.4 0.5,3 V 3 C 0.5,1.6 1.6,0.5 3,0.5 h 3 z"
     id="path175440" />
</g>

<g
   transform="matrix(4.12,0,0,4.12,216,336)"
   id="g175446">
  <path
     d="M 3,5.5 H 0 v -5 H 3 C 4.4,0.5 5.5,1.6 5.5,3 V 3 C 5.5,4.4 4.4,5.5 3,5.5 Z"
     id="path175444" />
</g>

<g
   transform="matrix(4.12,0,0,4.12,360,336)"
   id="g175450">
  <circle
     cx="3"
     cy="3"
     r="2.5"
     id="circle175448" />
</g>

<g
   transform="matrix(4.12,0,0,4.12,456,336)"
   id="g175454">
  <path
     d="M 6,5.5 H 3 C 1.6,5.5 0.5,4.4 0.5,3 V 3 C 0.5,1.6 1.6,0.5 3,0.5 h 3 z"
     id="path175452" />
</g>

<g
   transform="matrix(4.12,0,0,4.12,480,336)"
   id="g175458">
  <path
     d="M 3,5.5 H 0 v -5 H 3 C 4.4,0.5 5.5,1.6 5.5,3 V 3 C 5.5,4.4 4.4,5.5 3,5.5 Z"
     id="path175456" />
</g>

<g
   transform="matrix(4.12,0,0,4.12,528,336)"
   id="g175462">
  <circle
     cx="3"
     cy="3"
     r="2.5"
     id="circle175460" />
</g>

<g
   transform="matrix(4.12,0,0,4.12,576,336)"
   id="g175466">
  <path
     d="M 6,5.5 H 3 C 1.6,5.5 0.5,4.4 0.5,3 V 3 C 0.5,1.6 1.6,0.5 3,0.5 h 3 z"
     id="path175464" />
</g>

<g
   transform="matrix(4.12,0,0,4.12,600,336)"
   id="g175470">
  <rect
     y="0.5"
     width="6"
     height="5"
     id="rect175468"
     x="0" />
</g>

<g
   transform="matrix(4.12,0,0,4.12,624,336)"
   id="g175474">
  <path
     d="M 3,5.5 H 0 v -5 H 3 C 4.4,0.5 5.5,1.6 5.5,3 V 3 C 5.5,4.4 4.4,5.5 3,5.5 Z"
     id="path175472" />
</g>

<g
   transform="matrix(4.12,0,0,4.12,48,360)"
   id="g175478">
  <circle
     cx="3"
     cy="3"
     r="2.5"
     id="circle175476" />
</g>

<g
   transform="matrix(4.12,0,0,4.12,120,360)"
   id="g175482">
  <path
     d="M 6,5.5 H 3 C 1.6,5.5 0.5,4.4 0.5,3 V 3 C 0.5,1.6 1.6,0.5 3,0.5 h 3 z"
     id="path175480" />
</g>

<g
   transform="matrix(4.12,0,0,4.12,144,360)"
   id="g175486">
  <path
     d="M 3,5.5 H 0 v -5 H 3 C 4.4,0.5 5.5,1.6 5.5,3 V 3 C 5.5,4.4 4.4,5.5 3,5.5 Z"
     id="path175484" />
</g>

<g
   transform="matrix(4.12,0,0,4.12,216,360)"
   id="g175490">
  <path
     d="M 6,5.5 H 3 C 1.6,5.5 0.5,4.4 0.5,3 V 3 C 0.5,1.6 1.6,0.5 3,0.5 h 3 z"
     id="path175488" />
</g>

<g
   transform="matrix(4.12,0,0,4.12,240,360)"
   id="g175494">
  <path
     d="M 3,5.5 H 0 v -5 H 3 C 4.4,0.5 5.5,1.6 5.5,3 V 3 C 5.5,4.4 4.4,5.5 3,5.5 Z"
     id="path175492" />
</g>

<g
   transform="matrix(4.12,0,0,4.12,336,360)"
   id="g175498">
  <path
     d="M 6,5.5 H 3 C 1.6,5.5 0.5,4.4 0.5,3 V 3 C 0.5,1.6 1.6,0.5 3,0.5 h 3 z"
     id="path175496" />
</g>

<g
   transform="matrix(4.12,0,0,4.12,360,360)"
   id="g175502">
  <path
     d="M 3,5.5 H 0 v -5 H 3 C 4.4,0.5 5.5,1.6 5.5,3 V 3 C 5.5,4.4 4.4,5.5 3,5.5 Z"
     id="path175500" />
</g>

<g
   transform="matrix(4.12,0,0,4.12,432,360)"
   id="g175506">
  <circle
     cx="3"
     cy="3"
     r="2.5"
     id="circle175504" />
</g>

<g
   transform="matrix(4.12,0,0,4.12,504,360)"
   id="g175510">
  <circle
     cx="3"
     cy="3"
     r="2.5"
     id="circle175508" />
</g>

<g
   transform="matrix(4.12,0,0,4.12,552,360)"
   id="g175514">
  <circle
     cx="3"
     cy="3"
     r="2.5"
     id="circle175512" />
</g>

<g
   transform="matrix(4.12,0,0,4.12,600,360)"
   id="g175518">
  <circle
     cx="3"
     cy="3"
     r="2.5"
     id="circle175516" />
</g>

<g
   transform="matrix(4.12,0,0,4.12,48,384)"
   id="g175522">
  <circle
     cx="3"
     cy="3"
     r="2.5"
     id="circle175520" />
</g>

<g
   transform="matrix(4.12,0,0,4.12,120,384)"
   id="g175526">
  <circle
     cx="3"
     cy="3"
     r="2.5"
     id="circle175524" />
</g>

<g
   transform="matrix(4.12,0,0,4.12,192,384)"
   id="g175530">
  <circle
     cx="3"
     cy="3"
     r="2.5"
     id="circle175528" />
</g>

<g
   transform="matrix(4.12,0,0,4.12,240,384)"
   id="g175534">
  <path
     d="M 6,5.5 H 3 C 1.6,5.5 0.5,4.4 0.5,3 V 3 C 0.5,1.6 1.6,0.5 3,0.5 h 3 z"
     id="path175532" />
</g>

<g
   transform="matrix(4.12,0,0,4.12,264,384)"
   id="g175538">
  <rect
     y="0.5"
     width="6"
     height="5"
     id="rect175536"
     x="0" />
</g>

<g
   transform="matrix(4.12,0,0,4.12,288,384)"
   id="g175542">
  <path
     d="M 3,5.5 H 0 v -5 H 3 C 4.4,0.5 5.5,1.6 5.5,3 V 3 C 5.5,4.4 4.4,5.5 3,5.5 Z"
     id="path175540" />
</g>

<g
   transform="matrix(4.12,0,0,4.12,360,384)"
   id="g175546">
  <path
     d="M 6,5.5 H 3 C 1.6,5.5 0.5,4.4 0.5,3 V 3 C 0.5,1.6 1.6,0.5 3,0.5 h 3 z"
     id="path175544" />
</g>

<g
   transform="matrix(4.12,0,0,4.12,384,384)"
   id="g175550">
  <rect
     y="0.5"
     width="6"
     height="5"
     id="rect175548"
     x="0" />
</g>

<g
   transform="matrix(4.12,0,0,4.12,408,384)"
   id="g175554">
  <rect
     y="0.5"
     width="6"
     height="5"
     id="rect175552"
     x="0" />
</g>

<g
   transform="matrix(4.12,0,0,4.12,432,384)"
   id="g175558">
  <path
     d="M 3,5.5 H 0 v -5 H 3 C 4.4,0.5 5.5,1.6 5.5,3 V 3 C 5.5,4.4 4.4,5.5 3,5.5 Z"
     id="path175556" />
</g>

<g
   transform="matrix(4.12,0,0,4.12,504,384)"
   id="g175562">
  <path
     d="M 6,5.5 H 3 C 1.6,5.5 0.5,4.4 0.5,3 V 3 C 0.5,1.6 1.6,0.5 3,0.5 h 3 z"
     id="path175560" />
</g>

<g
   transform="matrix(4.12,0,0,4.12,528,384)"
   id="g175566">
  <rect
     y="0.5"
     width="6"
     height="5"
     id="rect175564"
     x="0" />
</g>

<g
   transform="matrix(4.12,0,0,4.12,552,384)"
   id="g175570">
  <path
     d="M 3,5.5 H 0 v -5 H 3 C 4.4,0.5 5.5,1.6 5.5,3 V 3 C 5.5,4.4 4.4,5.5 3,5.5 Z"
     id="path175568" />
</g>

<g
   transform="matrix(4.12,0,0,4.12,600,384)"
   id="g175574">
  <path
     d="M 6,5.5 H 3 C 1.6,5.5 0.5,4.4 0.5,3 V 3 C 0.5,1.6 1.6,0.5 3,0.5 h 3 z"
     id="path175572" />
</g>

<g
   transform="matrix(4.12,0,0,4.12,624,384)"
   id="g175578">
  <path
     d="M 3,5.5 H 0 v -5 H 3 C 4.4,0.5 5.5,1.6 5.5,3 V 3 C 5.5,4.4 4.4,5.5 3,5.5 Z"
     id="path175576" />
</g>

<g
   transform="matrix(4.12,0,0,4.12,48,408)"
   id="g175582">
  <circle
     cx="3"
     cy="3"
     r="2.5"
     id="circle175580" />
</g>

<g
   transform="matrix(4.12,0,0,4.12,120,408)"
   id="g175586">
  <circle
     cx="3"
     cy="3"
     r="2.5"
     id="circle175584" />
</g>

<g
   transform="matrix(4.12,0,0,4.12,264,408)"
   id="g175590">
  <circle
     cx="3"
     cy="3"
     r="2.5"
     id="circle175588" />
</g>

<g
   transform="matrix(4.12,0,0,4.12,336,408)"
   id="g175594">
  <circle
     cx="3"
     cy="3"
     r="2.5"
     id="circle175592" />
</g>

<g
   transform="matrix(4.12,0,0,4.12,408,408)"
   id="g175598">
  <circle
     cx="3"
     cy="3"
     r="2.5"
     id="circle175596" />
</g>

<g
   transform="matrix(4.12,0,0,4.12,456,408)"
   id="g175602">
  <circle
     cx="3"
     cy="3"
     r="2.5"
     id="circle175600" />
</g>

<g
   transform="matrix(4.12,0,0,4.12,504,408)"
   id="g175606">
  <path
     d="M 6,5.5 H 3 C 1.6,5.5 0.5,4.4 0.5,3 V 3 C 0.5,1.6 1.6,0.5 3,0.5 h 3 z"
     id="path175604" />
</g>

<g
   transform="matrix(4.12,0,0,4.12,528,408)"
   id="g175610">
  <path
     d="M 3,5.5 H 0 v -5 H 3 C 4.4,0.5 5.5,1.6 5.5,3 V 3 C 5.5,4.4 4.4,5.5 3,5.5 Z"
     id="path175608" />
</g>

<g
   transform="matrix(4.12,0,0,4.12,624,408)"
   id="g175614">
  <circle
     cx="3"
     cy="3"
     r="2.5"
     id="circle175612" />
</g>

<g
   transform="matrix(4.12,0,0,4.12,48,432)"
   id="g175618">
  <circle
     cx="3"
     cy="3"
     r="2.5"
     id="circle175616" />
</g>

<g
   transform="matrix(4.12,0,0,4.12,96,432)"
   id="g175622">
  <circle
     cx="3"
     cy="3"
     r="2.5"
     id="circle175620" />
</g>

<g
   transform="matrix(4.12,0,0,4.12,168,432)"
   id="g175626">
  <path
     d="M 6,5.5 H 3 C 1.6,5.5 0.5,4.4 0.5,3 V 3 C 0.5,1.6 1.6,0.5 3,0.5 h 3 z"
     id="path175624" />
</g>

<g
   transform="matrix(4.12,0,0,4.12,192,432)"
   id="g175630">
  <rect
     y="0.5"
     width="6"
     height="5"
     id="rect175628"
     x="0" />
</g>

<g
   transform="matrix(4.12,0,0,4.12,216,432)"
   id="g175634">
  <rect
     y="0.5"
     width="6"
     height="5"
     id="rect175632"
     x="0" />
</g>

<g
   transform="matrix(4.12,0,0,4.12,240,432)"
   id="g175638">
  <path
     d="M 3,5.5 H 0 v -5 H 3 C 4.4,0.5 5.5,1.6 5.5,3 V 3 C 5.5,4.4 4.4,5.5 3,5.5 Z"
     id="path175636" />
</g>

<g
   transform="matrix(4.12,0,0,4.12,336,432)"
   id="g175642">
  <path
     d="M 6,5.5 H 3 C 1.6,5.5 0.5,4.4 0.5,3 V 3 C 0.5,1.6 1.6,0.5 3,0.5 h 3 z"
     id="path175640" />
</g>

<g
   transform="matrix(4.12,0,0,4.12,360,432)"
   id="g175646">
  <rect
     y="0.5"
     width="6"
     height="5"
     id="rect175644"
     x="0" />
</g>

<g
   transform="matrix(4.12,0,0,4.12,384,432)"
   id="g175650">
  <rect
     y="0.5"
     width="6"
     height="5"
     id="rect175648"
     x="0" />
</g>

<g
   transform="matrix(4.12,0,0,4.12,408,432)"
   id="g175654">
  <rect
     y="0.5"
     width="6"
     height="5"
     id="rect175652"
     x="0" />
</g>

<g
   transform="matrix(4.12,0,0,4.12,432,432)"
   id="g175658">
  <rect
     y="0.5"
     width="6"
     height="5"
     id="rect175656"
     x="0" />
</g>

<g
   transform="matrix(4.12,0,0,4.12,456,432)"
   id="g175662">
  <rect
     y="0.5"
     width="6"
     height="5"
     id="rect175660"
     x="0" />
</g>

<g
   transform="matrix(4.12,0,0,4.12,480,432)"
   id="g175666">
  <rect
     y="0.5"
     width="6"
     height="5"
     id="rect175664"
     x="0" />
</g>

<g
   transform="matrix(4.12,0,0,4.12,504,432)"
   id="g175670">
  <rect
     y="0.5"
     width="6"
     height="5"
     id="rect175668"
     x="0" />
</g>

<g
   transform="matrix(4.12,0,0,4.12,528,432)"
   id="g175674">
  <path
     d="M 3,5.5 H 0 v -5 H 3 C 4.4,0.5 5.5,1.6 5.5,3 V 3 C 5.5,4.4 4.4,5.5 3,5.5 Z"
     id="path175672" />
</g>

<g
   transform="matrix(4.12,0,0,4.12,576,432)"
   id="g175678">
  <circle
     cx="3"
     cy="3"
     r="2.5"
     id="circle175676" />
</g>

<g
   transform="matrix(4.12,0,0,4.12,240,456)"
   id="g175682">
  <circle
     cx="3"
     cy="3"
     r="2.5"
     id="circle175680" />
</g>

<g
   transform="matrix(4.12,0,0,4.12,408,456)"
   id="g175686">
  <path
     d="M 6,5.5 H 3 C 1.6,5.5 0.5,4.4 0.5,3 V 3 C 0.5,1.6 1.6,0.5 3,0.5 h 3 z"
     id="path175684" />
</g>

<g
   transform="matrix(4.12,0,0,4.12,432,456)"
   id="g175690">
  <path
     d="M 3,5.5 H 0 v -5 H 3 C 4.4,0.5 5.5,1.6 5.5,3 V 3 C 5.5,4.4 4.4,5.5 3,5.5 Z"
     id="path175688" />
</g>

<g
   transform="matrix(4.12,0,0,4.12,528,456)"
   id="g175694">
  <path
     d="M 6,5.5 H 3 C 1.6,5.5 0.5,4.4 0.5,3 V 3 C 0.5,1.6 1.6,0.5 3,0.5 h 3 z"
     id="path175692" />
</g>

<g
   transform="matrix(4.12,0,0,4.12,552,456)"
   id="g175698">
  <path
     d="M 3,5.5 H 0 v -5 H 3 C 4.4,0.5 5.5,1.6 5.5,3 V 3 C 5.5,4.4 4.4,5.5 3,5.5 Z"
     id="path175696" />
</g>

<g
   transform="matrix(4.12,0,0,4.12,264,480)"
   id="g175702">
  <circle
     cx="3"
     cy="3"
     r="2.5"
     id="circle175700" />
</g>

<g
   transform="matrix(4.12,0,0,4.12,312,480)"
   id="g175706">
  <path
     d="M 6,5.5 H 3 C 1.6,5.5 0.5,4.4 0.5,3 V 3 C 0.5,1.6 1.6,0.5 3,0.5 h 3 z"
     id="path175704" />
</g>

<g
   transform="matrix(4.12,0,0,4.12,336,480)"
   id="g175710">
  <path
     d="M 3,5.5 H 0 v -5 H 3 C 4.4,0.5 5.5,1.6 5.5,3 V 3 C 5.5,4.4 4.4,5.5 3,5.5 Z"
     id="path175708" />
</g>

<g
   transform="matrix(4.12,0,0,4.12,384,480)"
   id="g175714">
  <circle
     cx="3"
     cy="3"
     r="2.5"
     id="circle175712" />
</g>

<g
   transform="matrix(4.12,0,0,4.12,432,480)"
   id="g175718">
  <circle
     cx="3"
     cy="3"
     r="2.5"
     id="circle175716" />
</g>

<g
   transform="matrix(4.12,0,0,4.12,480,480)"
   id="g175722">
  <circle
     cx="3"
     cy="3"
     r="2.5"
     id="circle175720" />
</g>

<g
   transform="matrix(4.12,0,0,4.12,528,480)"
   id="g175726">
  <circle
     cx="3"
     cy="3"
     r="2.5"
     id="circle175724" />
</g>

<g
   transform="matrix(4.12,0,0,4.12,576,480)"
   id="g175730">
  <path
     d="M 6,5.5 H 3 C 1.6,5.5 0.5,4.4 0.5,3 V 3 C 0.5,1.6 1.6,0.5 3,0.5 h 3 z"
     id="path175728" />
</g>

<g
   transform="matrix(4.12,0,0,4.12,600,480)"
   id="g175734">
  <rect
     y="0.5"
     width="6"
     height="5"
     id="rect175732"
     x="0" />
</g>

<g
   transform="matrix(4.12,0,0,4.12,624,480)"
   id="g175738">
  <path
     d="M 3,5.5 H 0 v -5 H 3 C 4.4,0.5 5.5,1.6 5.5,3 V 3 C 5.5,4.4 4.4,5.5 3,5.5 Z"
     id="path175736" />
</g>

<g
   transform="matrix(4.12,0,0,4.12,240,504)"
   id="g175742">
  <circle
     cx="3"
     cy="3"
     r="2.5"
     id="circle175740" />
</g>

<g
   transform="matrix(4.12,0,0,4.12,312,504)"
   id="g175746">
  <circle
     cx="3"
     cy="3"
     r="2.5"
     id="circle175744" />
</g>

<g
   transform="matrix(4.12,0,0,4.12,432,504)"
   id="g175750">
  <circle
     cx="3"
     cy="3"
     r="2.5"
     id="circle175748" />
</g>

<g
   transform="matrix(4.12,0,0,4.12,528,504)"
   id="g175754">
  <path
     d="M 6,5.5 H 3 C 1.6,5.5 0.5,4.4 0.5,3 V 3 C 0.5,1.6 1.6,0.5 3,0.5 h 3 z"
     id="path175752" />
</g>

<g
   transform="matrix(4.12,0,0,4.12,552,504)"
   id="g175758">
  <path
     d="M 3,5.5 H 0 v -5 H 3 C 4.4,0.5 5.5,1.6 5.5,3 V 3 C 5.5,4.4 4.4,5.5 3,5.5 Z"
     id="path175756" />
</g>

<g
   transform="matrix(4.12,0,0,4.12,624,504)"
   id="g175762">
  <circle
     cx="3"
     cy="3"
     r="2.5"
     id="circle175760" />
</g>

<g
   transform="matrix(4.12,0,0,4.12,240,528)"
   id="g175766">
  <path
     d="M 6,5.5 H 3 C 1.6,5.5 0.5,4.4 0.5,3 V 3 C 0.5,1.6 1.6,0.5 3,0.5 h 3 z"
     id="path175764" />
</g>

<g
   transform="matrix(4.12,0,0,4.12,264,528)"
   id="g175770">
  <path
     d="M 3,5.5 H 0 v -5 H 3 C 4.4,0.5 5.5,1.6 5.5,3 V 3 C 5.5,4.4 4.4,5.5 3,5.5 Z"
     id="path175768" />
</g>

<g
   transform="matrix(4.12,0,0,4.12,312,528)"
   id="g175774">
  <path
     d="M 6,5.5 H 3 C 1.6,5.5 0.5,4.4 0.5,3 V 3 C 0.5,1.6 1.6,0.5 3,0.5 h 3 z"
     id="path175772" />
</g>

<g
   transform="matrix(4.12,0,0,4.12,336,528)"
   id="g175778">
  <rect
     y="0.5"
     width="6"
     height="5"
     id="rect175776"
     x="0" />
</g>

<g
   transform="matrix(4.12,0,0,4.12,360,528)"
   id="g175782">
  <rect
     y="0.5"
     width="6"
     height="5"
     id="rect175780"
     x="0" />
</g>

<g
   transform="matrix(4.12,0,0,4.12,384,528)"
   id="g175786">
  <rect
     y="0.5"
     width="6"
     height="5"
     id="rect175784"
     x="0" />
</g>

<g
   transform="matrix(4.12,0,0,4.12,408,528)"
   id="g175790">
  <rect
     y="0.5"
     width="6"
     height="5"
     id="rect175788"
     x="0" />
</g>

<g
   transform="matrix(4.12,0,0,4.12,432,528)"
   id="g175794">
  <rect
     y="0.5"
     width="6"
     height="5"
     id="rect175792"
     x="0" />
</g>

<g
   transform="matrix(4.12,0,0,4.12,456,528)"
   id="g175798">
  <rect
     y="0.5"
     width="6"
     height="5"
     id="rect175796"
     x="0" />
</g>

<g
   transform="matrix(4.12,0,0,4.12,480,528)"
   id="g175802">
  <rect
     y="0.5"
     width="6"
     height="5"
     id="rect175800"
     x="0" />
</g>

<g
   transform="matrix(4.12,0,0,4.12,504,528)"
   id="g175806">
  <rect
     y="0.5"
     width="6"
     height="5"
     id="rect175804"
     x="0" />
</g>

<g
   transform="matrix(4.12,0,0,4.12,528,528)"
   id="g175810">
  <path
     d="M 3,5.5 H 0 v -5 H 3 C 4.4,0.5 5.5,1.6 5.5,3 V 3 C 5.5,4.4 4.4,5.5 3,5.5 Z"
     id="path175808" />
</g>

<g
   transform="matrix(4.12,0,0,4.12,576,528)"
   id="g175814">
  <circle
     cx="3"
     cy="3"
     r="2.5"
     id="circle175812" />
</g>

<g
   transform="matrix(4.12,0,0,4.12,240,552)"
   id="g175818">
  <path
     d="M 6,5.5 H 3 C 1.6,5.5 0.5,4.4 0.5,3 V 3 C 0.5,1.6 1.6,0.5 3,0.5 h 3 z"
     id="path175816" />
</g>

<g
   transform="matrix(4.12,0,0,4.12,264,552)"
   id="g175822">
  <path
     d="M 3,5.5 H 0 v -5 H 3 C 4.4,0.5 5.5,1.6 5.5,3 V 3 C 5.5,4.4 4.4,5.5 3,5.5 Z"
     id="path175820" />
</g>

<g
   transform="matrix(4.12,0,0,4.12,336,552)"
   id="g175826">
  <circle
     cx="3"
     cy="3"
     r="2.5"
     id="circle175824" />
</g>

<g
   transform="matrix(4.12,0,0,4.12,408,552)"
   id="g175830">
  <circle
     cx="3"
     cy="3"
     r="2.5"
     id="circle175828" />
</g>

<g
   transform="matrix(4.12,0,0,4.12,456,552)"
   id="g175834">
  <path
     d="M 6,5.5 H 3 C 1.6,5.5 0.5,4.4 0.5,3 V 3 C 0.5,1.6 1.6,0.5 3,0.5 h 3 z"
     id="path175832" />
</g>

<g
   transform="matrix(4.12,0,0,4.12,480,552)"
   id="g175838">
  <path
     d="M 3,5.5 H 0 v -5 H 3 C 4.4,0.5 5.5,1.6 5.5,3 V 3 C 5.5,4.4 4.4,5.5 3,5.5 Z"
     id="path175836" />
</g>

<g
   transform="matrix(4.12,0,0,4.12,528,552)"
   id="g175842">
  <path
     d="M 6,5.5 H 3 C 1.6,5.5 0.5,4.4 0.5,3 V 3 C 0.5,1.6 1.6,0.5 3,0.5 h 3 z"
     id="path175840" />
</g>

<g
   transform="matrix(4.12,0,0,4.12,552,552)"
   id="g175846">
  <rect
     y="0.5"
     width="6"
     height="5"
     id="rect175844"
     x="0" />
</g>

<g
   transform="matrix(4.12,0,0,4.12,576,552)"
   id="g175850">
  <rect
     y="0.5"
     width="6"
     height="5"
     id="rect175848"
     x="0" />
</g>

<g
   transform="matrix(4.12,0,0,4.12,600,552)"
   id="g175854">
  <rect
     y="0.5"
     width="6"
     height="5"
     id="rect175852"
     x="0" />
</g>

<g
   transform="matrix(4.12,0,0,4.12,624,552)"
   id="g175858">
  <path
     d="M 3,5.5 H 0 v -5 H 3 C 4.4,0.5 5.5,1.6 5.5,3 V 3 C 5.5,4.4 4.4,5.5 3,5.5 Z"
     id="path175856" />
</g>

<g
   transform="matrix(4.12,0,0,4.12,240,576)"
   id="g175862">
  <path
     d="M 6,5.5 H 3 C 1.6,5.5 0.5,4.4 0.5,3 V 3 C 0.5,1.6 1.6,0.5 3,0.5 h 3 z"
     id="path175860" />
</g>

<g
   transform="matrix(4.12,0,0,4.12,264,576)"
   id="g175866">
  <path
     d="M 3,5.5 H 0 v -5 H 3 C 4.4,0.5 5.5,1.6 5.5,3 V 3 C 5.5,4.4 4.4,5.5 3,5.5 Z"
     id="path175864" />
</g>

<g
   transform="matrix(4.12,0,0,4.12,336,576)"
   id="g175870">
  <circle
     cx="3"
     cy="3"
     r="2.5"
     id="circle175868" />
</g>

<g
   transform="matrix(4.12,0,0,4.12,384,576)"
   id="g175874">
  <path
     d="M 6,5.5 H 3 C 1.6,5.5 0.5,4.4 0.5,3 V 3 C 0.5,1.6 1.6,0.5 3,0.5 h 3 z"
     id="path175872" />
</g>

<g
   transform="matrix(4.12,0,0,4.12,408,576)"
   id="g175878">
  <rect
     y="0.5"
     width="6"
     height="5"
     id="rect175876"
     x="0" />
</g>

<g
   transform="matrix(4.12,0,0,4.12,432,576)"
   id="g175882">
  <path
     d="M 3,5.5 H 0 v -5 H 3 C 4.4,0.5 5.5,1.6 5.5,3 V 3 C 5.5,4.4 4.4,5.5 3,5.5 Z"
     id="path175880" />
</g>

<g
   transform="matrix(4.12,0,0,4.12,552,576)"
   id="g175886">
  <path
     d="M 6,5.5 H 3 C 1.6,5.5 0.5,4.4 0.5,3 V 3 C 0.5,1.6 1.6,0.5 3,0.5 h 3 z"
     id="path175884" />
</g>

<g
   transform="matrix(4.12,0,0,4.12,576,576)"
   id="g175890">
  <path
     d="M 3,5.5 H 0 v -5 H 3 C 4.4,0.5 5.5,1.6 5.5,3 V 3 C 5.5,4.4 4.4,5.5 3,5.5 Z"
     id="path175888" />
</g>

<g
   transform="matrix(4.12,0,0,4.12,624,576)"
   id="g175894">
  <circle
     cx="3"
     cy="3"
     r="2.5"
     id="circle175892" />
</g>

<g
   transform="matrix(4.12,0,0,4.12,264,600)"
   id="g175898">
  <circle
     cx="3"
     cy="3"
     r="2.5"
     id="circle175896" />
</g>

<g
   transform="matrix(4.12,0,0,4.12,312,600)"
   id="g175902">
  <circle
     cx="3"
     cy="3"
     r="2.5"
     id="circle175900" />
</g>

<g
   transform="matrix(4.12,0,0,4.12,384,600)"
   id="g175906">
  <path
     d="M 6,5.5 H 3 C 1.6,5.5 0.5,4.4 0.5,3 V 3 C 0.5,1.6 1.6,0.5 3,0.5 h 3 z"
     id="path175904" />
</g>

<g
   transform="matrix(4.12,0,0,4.12,408,600)"
   id="g175910">
  <rect
     y="0.5"
     width="6"
     height="5"
     id="rect175908"
     x="0" />
</g>

<g
   transform="matrix(4.12,0,0,4.12,432,600)"
   id="g175914">
  <rect
     y="0.5"
     width="6"
     height="5"
     id="rect175912"
     x="0" />
</g>

<g
   transform="matrix(4.12,0,0,4.12,456,600)"
   id="g175918">
  <rect
     y="0.5"
     width="6"
     height="5"
     id="rect175916"
     x="0" />
</g>

<g
   transform="matrix(4.12,0,0,4.12,480,600)"
   id="g175922">
  <rect
     y="0.5"
     width="6"
     height="5"
     id="rect175920"
     x="0" />
</g>

<g
   transform="matrix(4.12,0,0,4.12,504,600)"
   id="g175926">
  <rect
     y="0.5"
     width="6"
     height="5"
     id="rect175924"
     x="0" />
</g>

<g
   transform="matrix(4.12,0,0,4.12,528,600)"
   id="g175930">
  <rect
     y="0.5"
     width="6"
     height="5"
     id="rect175928"
     x="0" />
</g>

<g
   transform="matrix(4.12,0,0,4.12,552,600)"
   id="g175934">
  <path
     d="M 3,5.5 H 0 v -5 H 3 C 4.4,0.5 5.5,1.6 5.5,3 V 3 C 5.5,4.4 4.4,5.5 3,5.5 Z"
     id="path175932" />
</g>

<g
   transform="matrix(4.12,0,0,4.12,624,600)"
   id="g175938">
  <circle
     cx="3"
     cy="3"
     r="2.5"
     id="circle175936" />
</g>

<g
   transform="matrix(4.12,0,0,4.12,240,624)"
   id="g175942">
  <path
     d="M 6,5.5 H 3 C 1.6,5.5 0.5,4.4 0.5,3 V 3 C 0.5,1.6 1.6,0.5 3,0.5 h 3 z"
     id="path175940" />
</g>

<g
   transform="matrix(4.12,0,0,4.12,264,624)"
   id="g175946">
  <path
     d="M 3,5.5 H 0 v -5 H 3 C 4.4,0.5 5.5,1.6 5.5,3 V 3 C 5.5,4.4 4.4,5.5 3,5.5 Z"
     id="path175944" />
</g>

<g
   transform="matrix(4.12,0,0,4.12,360,624)"
   id="g175950">
  <path
     d="M 6,5.5 H 3 C 1.6,5.5 0.5,4.4 0.5,3 V 3 C 0.5,1.6 1.6,0.5 3,0.5 h 3 z"
     id="path175948" />
</g>

<g
   transform="matrix(4.12,0,0,4.12,384,624)"
   id="g175954">
  <path
     d="M 3,5.5 H 0 v -5 H 3 C 4.4,0.5 5.5,1.6 5.5,3 V 3 C 5.5,4.4 4.4,5.5 3,5.5 Z"
     id="path175952" />
</g>

<g
   transform="matrix(4.12,0,0,4.12,456,624)"
   id="g175958">
  <path
     d="M 6,5.5 H 3 C 1.6,5.5 0.5,4.4 0.5,3 V 3 C 0.5,1.6 1.6,0.5 3,0.5 h 3 z"
     id="path175956" />
</g>

<g
   transform="matrix(4.12,0,0,4.12,480,624)"
   id="g175962">
  <rect
     y="0.5"
     width="6"
     height="5"
     id="rect175960"
     x="0" />
</g>

<g
   transform="matrix(4.12,0,0,4.12,504,624)"
   id="g175966">
  <rect
     y="0.5"
     width="6"
     height="5"
     id="rect175964"
     x="0" />
</g>

<g
   transform="matrix(4.12,0,0,4.12,528,624)"
   id="g175970">
  <rect
     y="0.5"
     width="6"
     height="5"
     id="rect175968"
     x="0" />
</g>

<g
   transform="matrix(4.12,0,0,4.12,552,624)"
   id="g175974">
  <rect
     y="0.5"
     width="6"
     height="5"
     id="rect175972"
     x="0" />
</g>

<g
   transform="matrix(4.12,0,0,4.12,576,624)"
   id="g175978">
  <rect
     y="0.5"
     width="6"
     height="5"
     id="rect175976"
     x="0" />
</g>

<g
   transform="matrix(4.12,0,0,4.12,600,624)"
   id="g175982">
  <rect
     y="0.5"
     width="6"
     height="5"
     id="rect175980"
     x="0" />
</g>

<g
   transform="matrix(4.12,0,0,4.12,624,624)"
   id="g175986">
  <path
     d="M 3,5.5 H 0 v -5 H 3 C 4.4,0.5 5.5,1.6 5.5,3 V 3 C 5.5,4.4 4.4,5.5 3,5.5 Z"
     id="path175984" />
</g>

<g
   transform="translate(48,48)"
   id="g175992">
  <g
     transform="scale(12)"
     id="g175990">
    <path
       d="M 14,0 H 4.4 C 2,0 0,2 0,4.4 V 14 H 14 Z M 2,12 V 4.8 C 2,3.3 3.3,2 4.8,2 H 12 v 10 z"
       id="path175988" />
  </g>
</g>

<g
   transform="translate(480,48)"
   id="g175998">
  <g
     transform="matrix(0,12,-12,0,168,0)"
     id="g175996">
    <path
       d="M 14,0 H 4.4 C 2,0 0,2 0,4.4 V 14 H 14 Z M 2,12 V 4.8 C 2,3.3 3.3,2 4.8,2 H 12 v 10 z"
       id="path175994" />
  </g>
</g>

<g
   transform="translate(48,480)"
   id="g176004">
  <g
     transform="matrix(0,-12,12,0,0,168)"
     id="g176002">
    <path
       d="M 14,0 H 4.4 C 2,0 0,2 0,4.4 V 14 H 14 Z M 2,12 V 4.8 C 2,3.3 3.3,2 4.8,2 H 12 v 10 z"
       id="path176000" />
  </g>
</g>

<g
   transform="translate(96,96)"
   id="g176010">
  <g
     transform="scale(12)"
     id="g176008">
    <rect
       width="6"
       height="6"
       id="rect176006"
       x="0"
       y="0" />
  </g>
</g>

<g
   transform="translate(528,96)"
   id="g176016">
  <g
     transform="scale(12)"
     id="g176014">
    <rect
       width="6"
       height="6"
       id="rect176012"
       x="0"
       y="0" />
  </g>
</g>

<g
   transform="translate(96,528)"
   id="g176022">
  <g
     transform="scale(12)"
     id="g176020">
    <rect
       width="6"
       height="6"
       id="rect176018"
       x="0"
       y="0" />
  </g>
</g>

</g>
  </g>
  <g
     inkscape:groupmode="layer"
     id="layer2"
     inkscape:label="Layer 2"
     style="display:none;opacity:0.0854061"
     sodipodi:insensitive="true">
    <rect
       style="opacity:1;fill:#090b0f;fill-opacity:1;stroke-width:1.31127;stroke-linejoin:round;paint-order:markers fill stroke"
       id="rect1358"
       width="84.835999"
       height="46.736"
       x="4.064002"
       y="4.0640011" />
  </g>
</svg>
